<?xml version="1.0" encoding="UTF-8" standalone="no"?>
<!DOCTYPE svg PUBLIC "-//W3C//DTD SVG 1.1//EN" "http://www.w3.org/Graphics/SVG/1.1/DTD/svg11.dtd">
<svg width="100%" height="100%" viewBox="0 0 22 20" version="1.1" xmlns="http://www.w3.org/2000/svg" xmlns:xlink="http://www.w3.org/1999/xlink" xml:space="preserve" xmlns:serif="http://www.serif.com/" style="fill-rule:evenodd;clip-rule:evenodd;stroke-linejoin:round;stroke-miterlimit:2;">
    <g transform="matrix(1,0,0,1,-3415,-1764)">
        <g transform="matrix(0.778788,0,0,0.853928,1939.99,265.028)">
            <g transform="matrix(0.631579,0,0,0.631579,706.082,645.871)">
                <g transform="matrix(1.02135,0,0,0.931481,10.2135,117.971)">
                    <path d="M1836.5,1767.31L1836.5,1765.08C1836.5,1762 1839,1759.5 1842.08,1759.5L1867.92,1759.5C1871,1759.5 1873.5,1762 1873.5,1765.08L1873.5,1791.92C1873.5,1795 1871,1797.5 1867.92,1797.5L1842.08,1797.5C1839,1797.5 1836.5,1795 1836.5,1791.92L1836.5,1789.69L1839.5,1788.51L1839.5,1791.92C1839.5,1793.34 1840.66,1794.5 1842.08,1794.5L1867.92,1794.5C1869.34,1794.5 1870.5,1793.34 1870.5,1791.92L1870.5,1765.08C1870.5,1763.66 1869.34,1762.5 1867.92,1762.5L1842.08,1762.5C1840.66,1762.5 1839.5,1763.66 1839.5,1765.08L1839.5,1768.49L1836.5,1767.31Z" style="fill:rgb(191,97,106);"/>
                </g>
                <g transform="matrix(3.18759,0,0,2.9071,-3952.61,-3368.18)">
                    <path d="M1837.58,1769.75L1837.58,1768.34L1830.3,1765.48L1830.3,1766.83L1836.08,1769.05L1830.3,1771.26L1830.3,1772.61L1837.58,1769.75Z" style="fill:white;fill-rule:nonzero;"/>
                </g>
            </g>
        </g>
    </g>
</svg>
